<svg width="190" height="1" viewBox="0 0 190 1" fill="none" xmlns="http://www.w3.org/2000/svg">
<g clip-path="url(#clip0_23_8)">
<mask id="mask0_23_8" style="mask-type:luminance" maskUnits="userSpaceOnUse" x="0" y="0" width="190" height="1">
<path d="M190 1.00002V0L0 0V1.00002L190 1.00002Z" fill="white"/>
</mask>
<g mask="url(#mask0_23_8)">
<path d="M190 0.499696C174.174 0.689698 158.357 0.819698 142.548 0.889698C126.722 0.969698 110.884 0.989697 95.096 0.999696C79.309 1.0097 63.4318 0.969692 47.6443 0.889689C31.8569 0.809687 15.9798 0.694684 0.192383 0.499679C16.0353 0.306344 31.8526 0.176344 47.6443 0.109677C63.483 0.029677 79.309 0.00967742 95.096 -0.000321335C110.884 -0.01032 126.761 0.0296827 142.548 0.109686C158.335 0.189689 174.174 0.304691 190 0.499696Z" fill="white"/>
</g>
</g>
<defs>
<clipPath id="clip0_23_8">
<rect width="190" height="1" fill="white"/>
</clipPath>
</defs>
</svg>
