<svg width="50" height="50" viewBox="0 0 50 50" fill="none" xmlns="http://www.w3.org/2000/svg">
<circle cx="25" cy="25" r="25" transform="rotate(-180 25 25)" fill="#286FB4"/>
<rect width="14.695" height="26.7183" transform="translate(33.5 37.7778) rotate(-180)" fill="#286FB4"/>
<path d="M33.4997 24.4187C33.5002 24.5889 33.4667 24.7575 33.4012 24.9147C33.3358 25.0719 33.2397 25.2146 33.1186 25.3345L20.9901 37.43C20.7437 37.6589 20.4179 37.7836 20.0812 37.7776C19.7446 37.7717 19.4234 37.6357 19.1853 37.3983C18.9472 37.1608 18.8108 36.8405 18.8049 36.5047C18.799 36.169 18.9239 35.8441 19.1535 35.5984L30.3619 24.4187L19.1535 13.239C18.9239 12.9933 18.799 12.6684 18.8049 12.3327C18.8108 11.9969 18.9472 11.6766 19.1853 11.4391C19.4234 11.2017 19.7446 11.0657 20.0812 11.0598C20.4179 11.0538 20.7437 11.1785 20.9901 11.4074L33.1186 23.5029C33.2397 23.6228 33.3358 23.7655 33.4012 23.9227C33.4667 24.0799 33.5002 24.2485 33.4997 24.4187Z" fill="white"/>
</svg>
