<svg width="100" height="82" viewBox="0 0 100 82" fill="none" xmlns="http://www.w3.org/2000/svg">
<path d="M40.41 34.4901C45.4292 36.0554 50.6214 37.1918 54.581 41.2268C53.9274 41.2268 53.3442 41.2268 52.7595 41.2268C51.2204 41.218 49.7066 41.6168 48.3733 42.3822C46.1385 43.6776 45.0233 45.6368 45.0218 48.1984C45.0111 58.1882 45.0111 68.178 45.0218 78.1678V79.0985H44.2466C31.2529 79.0985 18.2626 79.0956 5.27566 79.0897C3.67978 79.0897 2.18647 78.6944 1.06393 77.4369C0.410437 76.7378 0.0443534 75.82 0.0381109 74.865C0.0307836 66.8198 -0.0395584 58.7732 0.0747474 50.7294C0.123108 47.2677 1.65302 44.2757 3.97138 41.7097C6.75575 38.6331 10.3461 36.9424 14.2457 35.7797C15.6819 35.3508 17.1121 34.9044 18.6216 34.4376C19.1389 35.6674 19.6562 36.884 20.1647 38.105C21.8661 42.1896 23.5587 46.2742 25.2718 50.3472C25.3554 50.5441 25.6016 50.671 25.7716 50.8315C25.8829 50.6419 26.0647 50.4624 26.0925 50.2611C26.54 47.0742 26.9698 43.8852 27.3821 40.6944C27.407 40.4989 27.2356 40.2772 27.1506 40.07C26.8091 39.2327 26.3284 38.4216 26.1599 37.5507C25.9621 36.5295 26.7226 35.8001 27.7836 35.7768C28.8094 35.7578 29.8353 35.8235 30.8611 35.7593C32.158 35.6776 33.2556 36.4989 32.8014 38.2947C32.7208 38.6185 32.6358 39.008 32.4116 39.2181C31.3975 40.1707 31.7096 41.3027 31.8767 42.4274C32.2606 45.0124 32.6328 47.5988 33.027 50.1823C33.0622 50.407 33.2366 50.62 33.3465 50.8271C33.5019 50.636 33.71 50.4668 33.8023 50.2436C35.894 45.2526 37.9788 40.2587 40.0568 35.2618C40.1565 35.0066 40.2884 34.7527 40.41 34.4901Z" fill="#FE6300"/>
<path d="M63.8075 44.8447C63.8075 43.1393 63.7987 41.5376 63.8075 39.9373C63.8207 37.7973 65.2364 35.9475 67.2602 35.4326C67.5678 35.3639 67.8828 35.333 68.198 35.3406C72.2764 35.3406 76.3562 35.4019 80.4317 35.3086C82.3764 35.2633 84.8398 37.1671 84.872 39.7374C84.8926 41.4092 84.872 43.0824 84.872 44.8082C85.1578 44.8228 85.3938 44.8447 85.6282 44.8447H96.033C98.5536 44.8447 99.9677 46.2509 99.9692 48.7615V59.5084C93.6677 61.275 87.227 62.1138 80.6251 62.4829C80.6251 62.0161 80.6251 61.6324 80.6251 61.2502C80.6134 59.5493 79.4528 58.3997 77.7104 58.3924C75.4887 58.3837 73.2666 58.3837 71.044 58.3924C69.2371 58.3924 68.0779 59.5376 68.0398 61.3363C68.0398 61.6762 68.0398 62.0161 68.0398 62.4727C61.4819 62.3225 54.972 61.3171 48.6767 59.4821V56.4887C48.6767 53.8629 48.7573 51.2371 48.6503 48.6112C48.5726 46.7323 49.8827 44.8344 52.437 44.8417C55.9541 44.8505 59.4712 44.8417 62.9883 44.8417L63.8075 44.8447ZM67.7335 44.7936H81.0164C81.0164 43.2633 81.0501 41.7841 81.0032 40.3078C80.9754 39.4398 80.7365 39.2765 79.8558 39.275C77.9995 39.275 76.1433 39.275 74.287 39.275C72.4581 39.275 70.6283 39.275 68.7974 39.275C68.2244 39.275 67.7467 39.4355 67.7364 40.0934C67.7159 41.6441 67.732 43.1962 67.732 44.7936H67.7335Z" fill="#FE6300"/>
<path d="M48.7339 62.2101C55.0822 64.0511 61.5215 64.9044 68.1321 65.0751C68.1321 65.7637 68.1116 66.3676 68.1321 66.9716C68.1996 68.6725 69.1858 69.7024 70.8784 69.7316C73.1987 69.7724 75.5185 69.7724 77.8379 69.7316C79.5744 69.698 80.7131 68.6521 80.6457 66.814C80.6252 66.2582 80.6457 65.6995 80.6457 65.0387C87.1693 64.7616 93.6462 63.8102 99.9722 62.1999V63.0999C99.9722 68.0102 99.9077 72.9219 99.9985 77.8337C100.044 80.2976 98.6577 82 95.8044 81.9956C91.0666 81.9956 86.3288 81.9956 81.5895 82.0029C72.0151 82.0029 62.4408 82.0029 52.8665 82.0029C50.85 82.0029 49.4373 81.1189 48.9244 79.5055C48.775 79.0448 48.6959 78.5643 48.6899 78.0802C48.6709 72.903 48.6752 67.7228 48.6752 62.5471C48.6888 62.4338 48.7084 62.3213 48.7339 62.2101Z" fill="#FE6300"/>
<path d="M29.5012 0C36.2848 0.0320934 42.5687 5.04303 44.2671 11.9037C46.3407 20.2772 41.3948 28.5879 33.011 30.7104C26.856 32.2699 20.4989 29.7491 16.7883 23.9489C11.2606 15.3085 15.5837 3.62655 25.4345 0.726474C26.7447 0.339895 28.1427 0.234865 29.5012 0Z" fill="#FE6300"/>
<path d="M74.3266 61.2866C75.2059 61.2866 76.0852 61.2866 76.9645 61.2866C77.5507 61.2866 77.8438 61.5784 77.8438 62.1882C77.8291 63.4267 77.8364 64.6681 77.8438 65.9066C77.8438 66.547 77.5052 66.8388 76.8941 66.8417C75.2103 66.8417 73.5236 66.8417 71.8412 66.8417C71.2052 66.8417 70.9033 66.5281 70.9033 65.9023C70.9033 64.6389 70.9033 63.3756 70.9033 62.1094C70.9033 61.5478 71.1788 61.2677 71.7621 61.2779C72.6223 61.3027 73.4767 61.2881 74.3266 61.2866Z" fill="#FE6300"/>
</svg>
