<svg width="100" height="82" viewBox="0 0 100 82" fill="none" xmlns="http://www.w3.org/2000/svg">
<path d="M40.418 34.4937C45.4372 36.059 50.6293 37.1954 54.589 41.2304C53.9354 41.2304 53.3522 41.2304 52.7675 41.2304C51.2284 41.2216 49.7146 41.6203 48.3813 42.3857C46.1465 43.6811 45.0313 45.6403 45.0298 48.2019C45.0191 58.1917 45.0191 68.1815 45.0298 78.1713V79.102H44.2546C31.2609 79.102 18.2706 79.0991 5.28366 79.0933C3.68777 79.0933 2.19447 78.6979 1.07193 77.4404C0.418433 76.7413 0.052349 75.8235 0.0461065 74.8686C0.0387792 66.8234 -0.0315628 58.7767 0.082743 50.7329C0.131103 47.2712 1.66102 44.2792 3.97938 41.7132C6.76375 38.6366 10.3541 36.9459 14.2537 35.7833C15.6899 35.3544 17.1201 34.908 18.6296 34.4412C19.1469 35.6709 19.6642 36.8876 20.1727 38.1086C21.8741 42.1932 23.5667 46.2778 25.2798 50.3507C25.3634 50.5477 25.6096 50.6746 25.7795 50.835C25.8909 50.6454 26.0727 50.466 26.1005 50.2647C26.548 47.0777 26.9778 43.8888 27.3901 40.6979C27.415 40.5024 27.2436 40.2807 27.1586 40.0735C26.8171 39.2362 26.3364 38.4251 26.1679 37.5542C25.9701 36.5331 26.7306 35.8037 27.7916 35.7803C28.8174 35.7614 29.8433 35.827 30.8691 35.7628C32.166 35.6811 33.2636 36.5024 32.8094 38.2982C32.7288 38.6221 32.6438 39.0116 32.4196 39.2216C31.4055 40.1742 31.7176 41.3062 31.8847 42.431C32.2686 45.0159 32.6408 47.6024 33.035 50.1859C33.0702 50.4105 33.2446 50.6235 33.3545 50.8307C33.5099 50.6396 33.7179 50.4703 33.8103 50.2471C35.902 45.2561 37.9868 40.2622 40.0648 35.2654C40.1645 35.0101 40.2964 34.7563 40.418 34.4937Z" fill="#374151"/>
<path d="M63.8155 44.8482C63.8155 43.1429 63.8067 41.5411 63.8155 39.9408C63.8287 37.8008 65.2444 35.951 67.2682 35.4361C67.5758 35.3674 67.8908 35.3366 68.206 35.3442C72.2844 35.3442 76.3642 35.4055 80.4397 35.3121C82.3844 35.2669 84.8478 37.1706 84.88 39.741C84.9006 41.4128 84.88 43.086 84.88 44.8117C85.1658 44.8263 85.4018 44.8482 85.6362 44.8482H96.041C98.5616 44.8482 99.9757 46.2545 99.9772 48.765V59.5119C93.6757 61.2785 87.235 62.1173 80.6331 62.4864C80.6331 62.0196 80.6331 61.6359 80.6331 61.2537C80.6214 59.5528 79.4608 58.4033 77.7184 58.396C75.4967 58.3872 73.2746 58.3872 71.052 58.396C69.2451 58.396 68.0859 59.5411 68.0478 61.3398C68.0478 61.6797 68.0478 62.0196 68.0478 62.4762C61.4899 62.326 54.98 61.3206 48.6847 59.4857V56.4923C48.6847 53.8664 48.7653 51.2406 48.6583 48.6148C48.5806 46.7359 49.8907 44.838 52.445 44.8453C55.9621 44.854 59.4792 44.8453 62.9963 44.8453L63.8155 44.8482ZM67.7415 44.7971H81.0244C81.0244 43.2669 81.0581 41.7876 81.0112 40.3114C80.9834 39.4434 80.7445 39.28 79.8638 39.2785C78.0075 39.2785 76.1513 39.2785 74.295 39.2785C72.4661 39.2785 70.6363 39.2785 68.8054 39.2785C68.2324 39.2785 67.7547 39.439 67.7444 40.0969C67.7239 41.6476 67.74 43.1998 67.74 44.7971H67.7415Z" fill="#374151"/>
<path d="M48.7419 62.2136C55.0903 64.0546 61.5295 64.908 68.1402 65.0787C68.1402 65.7672 68.1197 66.3712 68.1402 66.9751C68.2076 68.676 69.1939 69.706 70.8865 69.7351C73.2068 69.776 75.5266 69.776 77.8459 69.7351C79.5825 69.7016 80.7212 68.6556 80.6538 66.8176C80.6333 66.2618 80.6538 65.703 80.6538 65.0422C87.1774 64.7651 93.6543 63.8138 99.9802 62.2034V63.1035C99.9802 68.0137 99.9157 72.9255 100.007 77.8372C100.052 80.3011 98.6657 82.0035 95.8125 81.9992C91.0746 81.9992 86.3368 81.9992 81.5975 82.0065C72.0232 82.0065 62.4489 82.0065 52.8745 82.0065C50.8581 82.0065 49.4453 81.1224 48.9324 79.509C48.783 79.0483 48.704 78.5679 48.698 78.0838C48.6789 72.9065 48.6833 67.7264 48.6833 62.5506C48.6968 62.4373 48.7164 62.3248 48.7419 62.2136Z" fill="#374151"/>
<path d="M29.5092 0.00354004C36.2928 0.0356334 42.5767 5.04657 44.2751 11.9073C46.3487 20.2807 41.4028 28.5914 33.019 30.714C26.864 32.2734 20.5069 29.7526 16.7963 23.9525C11.2686 15.3121 15.5917 3.63009 25.4425 0.730014C26.7527 0.343435 28.1507 0.238405 29.5092 0.00354004Z" fill="#374151"/>
<path d="M74.3347 61.2902C75.214 61.2902 76.0933 61.2902 76.9725 61.2902C77.5587 61.2902 77.8518 61.5819 77.8518 62.1917C77.8372 63.4302 77.8445 64.6717 77.8518 65.9102C77.8518 66.5506 77.5133 66.8423 76.9022 66.8453C75.2184 66.8453 73.5316 66.8453 71.8493 66.8453C71.2133 66.8453 70.9114 66.5316 70.9114 65.9058C70.9114 64.6425 70.9114 63.3792 70.9114 62.1129C70.9114 61.5513 71.1869 61.2712 71.7702 61.2814C72.6304 61.3062 73.4847 61.2916 74.3347 61.2902Z" fill="#374151"/>
</svg>
