<svg width="100" height="98" viewBox="0 0 100 98" fill="none" xmlns="http://www.w3.org/2000/svg">
<path d="M43.1326 96.9966H11.429C8.39892 96.9966 5.62354 96.2463 3.36443 94.1267C1.10533 92.0071 0.0104248 89.3529 0.00869239 86.3019C-0.00863203 65.606 -0.00573617 44.9101 0.0173631 24.2142C0.0173631 19.223 3.92056 14.7044 8.98448 13.8283C10.2911 13.6142 11.6137 13.5109 12.9379 13.5196C26.7974 13.4989 40.657 13.4955 54.5165 13.5093C56.8293 13.5093 58.3279 14.4371 59.0451 16.2687C59.3052 16.8937 59.4055 17.5732 59.3368 18.2463C59.2682 18.9193 59.0327 19.5649 58.6517 20.1251C58.2707 20.6853 57.7559 21.1425 57.1536 21.4559C56.5514 21.7692 55.8803 21.9288 55.2008 21.9204C40.8216 21.9204 26.4423 21.9618 12.063 21.8842C9.40545 21.8704 8.59813 23.3226 8.59813 25.3801C8.64144 39.7534 8.62067 54.125 8.61894 68.4966C8.61894 74.1017 8.61894 79.7069 8.61894 85.312C8.61894 86.4606 8.69688 87.6317 9.8992 88.1956C10.5277 88.4686 11.2075 88.605 11.8932 88.5957C31.3555 88.6153 50.8166 88.6193 70.2765 88.6078H74.7012C76.9794 88.6078 77.9928 87.5851 77.9928 85.2809C77.9928 81.773 77.9928 78.2662 77.9928 74.7605C77.9928 64.5574 77.9928 54.3532 77.9928 44.1478C77.9928 42.4232 78.639 41.059 80.2138 40.276C81.7886 39.493 83.3444 39.6068 84.7944 40.5847C85.9569 41.3694 86.4679 42.5663 86.4697 43.9064C86.4905 58.2504 86.5147 72.5944 86.4697 86.9383C86.4541 91.7191 82.4695 96.079 77.681 96.7689C76.5096 96.9267 75.3288 97.0045 74.1468 97.0017C68.979 97.0259 63.8093 97.0103 58.6415 97.0103L43.1326 96.9966Z" fill="#DF4C73"/>
<path d="M85.146 8.29044H69.6147C67.1373 8.29044 65.4863 6.65546 65.4915 4.21507C65.4967 1.77468 67.1997 0.00689697 69.6199 0.00689697C78.4831 0.00689697 87.3456 0.00689697 96.2076 0.00689697C98.4408 0.00689697 99.9982 1.56944 99.9982 3.80115C99.9982 12.3635 99.9982 20.9293 99.9982 29.4986C99.9982 32.0235 98.1861 33.8102 95.6377 33.8206C93.2002 33.8206 91.3828 32.0011 91.3759 29.5089C91.3638 24.8248 91.3759 20.1406 91.3672 15.4564V14.4716C91.0918 14.7165 90.9029 14.8666 90.7332 15.0356C77.5805 28.074 64.4364 41.1199 51.301 54.1733C49.0835 56.386 46.0777 55.9738 44.6346 54.4078C43.0546 52.6935 43.1309 50.0651 44.891 48.2974C48.4887 44.6859 52.1014 41.0894 55.7292 37.5079C65.2784 28.0349 74.8293 18.5648 84.382 9.09759C84.6003 8.86304 84.8082 8.63537 85.146 8.29044Z" fill="#DF4C73"/>
</svg>
