<svg width="100" height="98" viewBox="0 0 100 98" fill="none" xmlns="http://www.w3.org/2000/svg">
<path d="M43.1406 97.0001H11.437C8.40691 97.0001 5.63153 96.2499 3.37243 94.1303C1.11332 92.0107 0.0184204 89.3564 0.016688 86.3055C-0.000636422 65.6096 0.00225944 44.9137 0.0253587 24.2177C0.0253587 19.2266 3.92855 14.708 8.99248 13.8319C10.2991 13.6177 11.6217 13.5144 12.9459 13.5231C26.8054 13.5024 40.665 13.499 54.5245 13.5128C56.8373 13.5128 58.3359 14.4407 59.0531 16.2723C59.3132 16.8973 59.4135 17.5768 59.3448 18.2498C59.2761 18.9229 59.0407 19.5685 58.6597 20.1286C58.2787 20.6888 57.7639 21.1461 57.1616 21.4594C56.5594 21.7728 55.8883 21.9324 55.2088 21.924C40.8295 21.924 26.4503 21.9653 12.071 21.8877C9.41345 21.8739 8.60613 23.3261 8.60613 25.3836C8.64944 39.7569 8.62867 54.1285 8.62694 68.5001C8.62694 74.1052 8.62694 79.7104 8.62694 85.3155C8.62694 86.4642 8.70488 87.6352 9.90719 88.1992C10.5357 88.4721 11.2155 88.6085 11.9012 88.5993C31.3635 88.6188 50.8246 88.6229 70.2845 88.6114H74.7092C76.9874 88.6114 78.0008 87.5886 78.0008 85.2845C78.0008 81.7765 78.0008 78.2697 78.0008 74.7641C78.0008 64.561 78.0008 54.3568 78.0008 44.1514C78.0008 42.4267 78.647 41.0625 80.2218 40.2795C81.7966 39.4965 83.3523 39.6103 84.8024 40.5882C85.9649 41.3729 86.4759 42.5699 86.4777 43.9099C86.4984 58.2539 86.5227 72.5979 86.4777 86.9419C86.4621 91.7226 82.4775 96.0826 77.689 96.7724C76.5176 96.9303 75.3368 97.008 74.1548 97.0053C68.9869 97.0294 63.8173 97.0139 58.6495 97.0139L43.1406 97.0001Z" fill="#374151"/>
<path d="M85.154 8.29398H69.6227C67.1453 8.29398 65.4943 6.659 65.4995 4.21861C65.5047 1.77822 67.2077 0.010437 69.6279 0.010437C78.4911 0.010437 87.3536 0.010437 96.2156 0.010437C98.4488 0.010437 100.006 1.57298 100.006 3.80469C100.006 12.367 100.006 20.9329 100.006 29.5021C100.006 32.027 98.1941 33.8138 95.6457 33.8241C93.2082 33.8241 91.3908 32.0046 91.3839 29.5125C91.3717 24.8283 91.3839 20.1441 91.3752 15.4599V14.4752C91.0997 14.7201 90.9109 14.8701 90.7411 15.0391C77.5884 28.0775 64.4444 41.1234 51.309 54.1768C49.0915 56.3896 46.0857 55.9774 44.6426 54.4114C43.0626 52.6971 43.1388 50.0687 44.899 48.3009C48.4967 44.6895 52.1094 41.093 55.7372 37.5114C65.2864 28.0385 74.8373 18.5684 84.39 9.10113C84.6083 8.86658 84.8162 8.63891 85.154 8.29398Z" fill="#374151"/>
</svg>
