<svg width="100" height="94" viewBox="0 0 100 94" fill="none" xmlns="http://www.w3.org/2000/svg">
<path d="M49.2702 44.5916C60.3385 33.5054 71.3632 22.4646 82.3445 11.4692C80.3221 9.43396 78.2754 7.40241 76.2754 5.32609C75.9734 5.01268 75.6864 4.44368 75.7684 4.07617C75.8336 3.78142 76.4469 3.47922 76.8551 3.41392C81.0341 2.7442 85.2224 2.13045 89.4071 1.48498C92.3993 1.02233 95.3885 0.542874 98.3746 0.0466446C99.5228 -0.139908 100.211 0.162323 99.9422 1.48498C99.0475 5.9044 98.246 10.3425 97.4035 14.7731C96.9375 17.23 96.4845 19.6906 95.9738 22.1382C95.875 22.6102 95.6513 23.2202 95.2879 23.4441C94.7175 23.7854 94.2124 23.3153 93.7743 22.8732C92.0297 21.1047 90.2626 19.3567 88.3875 17.4837C86.8646 19.0414 85.3716 20.6047 83.8394 22.1307C73.2558 32.6821 62.6678 43.2285 52.0755 53.77C50.3234 55.5143 48.4818 55.5068 46.7185 53.7364C42.4444 49.4457 38.1815 45.1401 33.8422 40.7673C30.0714 44.5618 26.3863 48.2966 22.6751 52.0052C17.5803 57.1043 12.4743 62.1916 7.35705 67.2671C5.97958 68.6382 4.59093 68.9684 3.06993 68.3062C1.36067 67.5599 -0.0540815 65.575 -2.64787e-05 63.9912C0.0372529 62.9241 0.611359 62.1499 1.33831 61.4317C8.77305 54.0604 16.2053 46.6835 23.6351 39.301C26.1701 36.7844 28.6939 34.2641 31.2326 31.74C33.0258 29.964 34.6921 29.9678 36.4685 31.74C40.7258 36.0102 44.9775 40.2879 49.2702 44.5916Z" fill="#FE6300"/>
<path d="M80.1618 63.5416C80.1618 54.214 80.1618 44.8913 80.1618 35.5737C80.1618 33.6578 80.9652 32.8388 82.8515 32.8388H94.7809C96.4324 32.8388 97.2805 33.6988 97.2805 35.3741C97.2805 54.079 97.2805 72.7859 97.2805 91.4946C97.2805 93.2743 96.7325 93.8937 94.9841 93.9049C90.8237 93.9347 86.6608 93.9347 82.4955 93.9049C80.7545 93.8937 80.1711 93.2538 80.1711 91.5095C80.1711 82.1819 80.1711 72.8593 80.1711 63.5416H80.1618Z" fill="#FE6300"/>
<path d="M75.1198 72.6622V91.3174C75.1198 93.1064 74.4525 93.8638 72.6388 93.9608C71.2148 94.0373 69.7832 93.9963 68.3517 93.9982C65.8987 93.9982 63.4439 93.9982 60.9909 93.987C58.8511 93.9758 58.1707 93.2799 58.1707 91.1364C58.1707 78.9484 58.1707 66.7646 58.1707 54.5852C58.1707 52.4921 59.1549 51.5015 61.2351 51.5015C65.055 51.5015 68.8749 51.5015 72.6947 51.5015C74.404 51.5015 75.1179 52.2235 75.1179 53.9267L75.1198 72.6622Z" fill="#FE6300"/>
<path d="M35.6036 77.9005C35.6036 73.2989 35.6036 68.701 35.6036 64.1068C35.6036 62.4279 36.4163 61.607 38.1163 61.6052C42.0579 61.6052 46.0002 61.6052 49.9431 61.6052C51.6953 61.6052 52.5527 62.4745 52.5527 64.2393C52.5527 73.343 52.5527 82.4462 52.5527 91.5487C52.5527 93.2444 51.9525 93.8526 50.2768 93.8545C46.0841 93.8545 41.8933 93.8545 37.7043 93.8545C36.174 93.8545 35.6036 93.2575 35.6036 91.6979C35.6036 87.0975 35.6036 82.4984 35.6036 77.9005Z" fill="#FE6300"/>
<path d="M12.6768 82.1726C12.6768 78.939 12.6768 75.7054 12.6768 72.4719C12.6768 70.8377 13.5659 69.959 15.1932 69.959C19.2629 69.959 23.3313 69.959 27.3984 69.959C28.7871 69.959 29.7694 70.8507 29.7731 72.2443C29.7955 78.7723 29.7955 85.3017 29.7731 91.8322C29.7731 93.1251 29.0033 93.8358 27.7228 93.8377C23.3735 93.8377 19.0243 93.8377 14.675 93.8377C13.2752 93.8377 12.6656 93.2015 12.6656 91.7856C12.6731 88.5794 12.6768 85.3751 12.6768 82.1726Z" fill="#FE6300"/>
</svg>
