<svg width="100" height="95" viewBox="0 0 100 95" fill="none" xmlns="http://www.w3.org/2000/svg">
<path d="M49.2718 44.5952C60.34 33.509 71.3647 22.4682 82.346 11.4728C80.3236 9.4375 78.277 7.40595 76.2769 5.32963C75.975 5.01622 75.6879 4.44722 75.7699 4.07971C75.8352 3.78496 76.4484 3.48276 76.8566 3.41746C81.0356 2.74774 85.224 2.13399 89.4086 1.48852C92.4009 1.02587 95.39 0.546414 98.3761 0.0501846C99.5243 -0.136368 100.212 0.165863 99.9437 1.48852C99.049 5.90794 98.2475 10.346 97.405 14.7766C96.939 17.2335 96.4861 19.6942 95.9753 22.1417C95.8765 22.6137 95.6529 23.2237 95.2894 23.4476C94.719 23.789 94.2139 23.3189 93.7759 22.8767C92.0312 21.1082 90.2641 19.3602 88.389 17.4872C86.8661 19.0449 85.3731 20.6083 83.8409 22.1343C73.2573 32.6857 62.6693 43.2321 52.077 53.7735C50.3249 55.5178 48.4833 55.5103 46.72 53.74C42.4459 49.4493 38.183 45.1436 33.8437 40.7708C30.0729 44.5653 26.3878 48.3001 22.6767 52.0088C17.5818 57.1079 12.4758 62.1951 7.35858 67.2706C5.98111 68.6418 4.59245 68.972 3.07145 68.3097C1.3622 67.5635 -0.0525557 65.5786 0.0014994 63.9947C0.0387788 62.9277 0.612885 62.1535 1.33983 61.4352C8.77458 54.0639 16.2068 46.687 23.6366 39.3045C26.1716 36.7879 28.6954 34.2676 31.2341 31.7436C33.0273 29.9676 34.6937 29.9713 36.47 31.7436C40.7273 36.0138 44.979 40.2914 49.2718 44.5952Z" fill="#DF4C73"/>
<path d="M80.1633 63.5451C80.1633 54.2175 80.1633 44.8949 80.1633 35.5772C80.1633 33.6613 80.9667 32.8423 82.853 32.8423H94.7824C96.4339 32.8423 97.282 33.7024 97.282 35.3776C97.282 54.0826 97.282 72.7894 97.282 91.4981C97.282 93.2778 96.734 93.8972 94.9856 93.9084C90.8252 93.9382 86.6624 93.9382 82.497 93.9084C80.7561 93.8972 80.1726 93.2573 80.1726 91.5131C80.1726 82.1854 80.1726 72.8628 80.1726 63.5451H80.1633Z" fill="#DF4C73"/>
<path d="M75.1213 72.6657V91.3209C75.1213 93.11 74.454 93.8674 72.6404 93.9644C71.2163 94.0409 69.7848 93.9998 68.3532 94.0017C65.9003 94.0017 63.4454 94.0017 60.9924 93.9905C58.8526 93.9793 58.1722 93.2835 58.1722 91.14C58.1722 78.9519 58.1722 66.7682 58.1722 54.5888C58.1722 52.4957 59.1564 51.5051 61.2366 51.5051C65.0565 51.5051 68.8764 51.5051 72.6963 51.5051C74.4055 51.5051 75.1194 52.227 75.1194 53.9302L75.1213 72.6657Z" fill="#DF4C73"/>
<path d="M35.6052 77.904C35.6052 73.3024 35.6052 68.7045 35.6052 64.1104C35.6052 62.4314 36.4178 61.6106 38.1178 61.6087C42.0595 61.6087 46.0018 61.6087 49.9447 61.6087C51.6968 61.6087 52.5542 62.478 52.5542 64.2428C52.5542 73.3466 52.5542 82.4497 52.5542 91.5522C52.5542 93.248 51.954 93.8561 50.2783 93.858C46.0856 93.858 41.8948 93.858 37.7059 93.858C36.1755 93.858 35.6052 93.261 35.6052 91.7015C35.6052 87.1011 35.6052 82.5019 35.6052 77.904Z" fill="#DF4C73"/>
<path d="M12.6784 82.1761C12.6784 78.9425 12.6784 75.709 12.6784 72.4754C12.6784 70.8412 13.5675 69.9625 15.1947 69.9625C19.2644 69.9625 23.3328 69.9625 27.4 69.9625C28.7886 69.9625 29.7709 70.8542 29.7747 72.2478C29.797 78.7759 29.797 85.3052 29.7747 91.8358C29.7747 93.1286 29.0048 93.8394 27.7243 93.8412C23.375 93.8412 19.0258 93.8412 14.6765 93.8412C13.2767 93.8412 12.6672 93.2051 12.6672 91.7891C12.6746 88.5829 12.6784 85.3786 12.6784 82.1761Z" fill="#DF4C73"/>
</svg>
