<svg width="100" height="95" viewBox="0 0 100 95" fill="none" xmlns="http://www.w3.org/2000/svg">
<path d="M49.2782 44.5952C60.3465 33.509 71.3712 22.4682 82.3525 11.4728C80.3301 9.4375 78.2834 7.40595 76.2834 5.32963C75.9814 5.01622 75.6944 4.44722 75.7764 4.07971C75.8416 3.78496 76.4549 3.48276 76.8631 3.41746C81.0421 2.74774 85.2304 2.13399 89.415 1.48852C92.4073 1.02587 95.3965 0.546414 98.3826 0.0501846C99.5308 -0.136368 100.219 0.165863 99.9502 1.48852C99.0555 5.90794 98.254 10.346 97.4115 14.7766C96.9455 17.2335 96.4925 19.6942 95.9818 22.1417C95.883 22.6137 95.6593 23.2237 95.2959 23.4476C94.7255 23.789 94.2204 23.3189 93.7823 22.8767C92.0377 21.1082 90.2706 19.3602 88.3955 17.4872C86.8726 19.0449 85.3796 20.6083 83.8474 22.1343C73.2638 32.6857 62.6758 43.2321 52.0835 53.7735C50.3314 55.5178 48.4898 55.5103 46.7265 53.74C42.4524 49.4493 38.1895 45.1436 33.8502 40.7708C30.0794 44.5653 26.3943 48.3001 22.6831 52.0088C17.5883 57.1079 12.4823 62.1951 7.36505 67.2706C5.98758 68.6418 4.59892 68.972 3.07792 68.3097C1.36867 67.5635 -0.0460859 65.5786 0.00796913 63.9947C0.0452485 62.9277 0.619355 62.1535 1.3463 61.4352C8.78105 54.0639 16.2133 46.687 23.6431 39.3045C26.1781 36.7879 28.7019 34.2676 31.2406 31.7436C33.0337 29.9676 34.7001 29.9713 36.4765 31.7436C40.7338 36.0138 44.9855 40.2914 49.2782 44.5952Z" fill="#374151"/>
<path d="M80.1698 63.5451C80.1698 54.2175 80.1698 44.8949 80.1698 35.5772C80.1698 33.6613 80.9732 32.8423 82.8595 32.8423H94.7889C96.4404 32.8423 97.2885 33.7024 97.2885 35.3776C97.2885 54.0826 97.2885 72.7894 97.2885 91.4981C97.2885 93.2778 96.7405 93.8972 94.9921 93.9084C90.8317 93.9382 86.6688 93.9382 82.5035 93.9084C80.7625 93.8972 80.1791 93.2573 80.1791 91.5131C80.1791 82.1854 80.1791 72.8628 80.1791 63.5451H80.1698Z" fill="#374151"/>
<path d="M75.1278 72.6657V91.3209C75.1278 93.11 74.4605 93.8674 72.6468 93.9644C71.2228 94.0409 69.7912 93.9998 68.3597 94.0017C65.9067 94.0017 63.4519 94.0017 60.9989 93.9905C58.8591 93.9793 58.1787 93.2835 58.1787 91.14C58.1787 78.9519 58.1787 66.7682 58.1787 54.5888C58.1787 52.4957 59.1629 51.5051 61.2431 51.5051C65.063 51.5051 68.8829 51.5051 72.7027 51.5051C74.412 51.5051 75.1259 52.227 75.1259 53.9302L75.1278 72.6657Z" fill="#374151"/>
<path d="M35.6116 77.904C35.6116 73.3024 35.6116 68.7045 35.6116 64.1104C35.6116 62.4314 36.4243 61.6106 38.1243 61.6087C42.0659 61.6087 46.0082 61.6087 49.9511 61.6087C51.7033 61.6087 52.5607 62.478 52.5607 64.2428C52.5607 73.3466 52.5607 82.4497 52.5607 91.5522C52.5607 93.248 51.9605 93.8561 50.2848 93.858C46.0921 93.858 41.9013 93.858 37.7123 93.858C36.182 93.858 35.6116 93.261 35.6116 91.7015C35.6116 87.1011 35.6116 82.5019 35.6116 77.904Z" fill="#374151"/>
<path d="M12.6848 82.1761C12.6848 78.9425 12.6848 75.709 12.6848 72.4754C12.6848 70.8412 13.5739 69.9625 15.2012 69.9625C19.2708 69.9625 23.3393 69.9625 27.4064 69.9625C28.7951 69.9625 29.7774 70.8542 29.7811 72.2478C29.8035 78.7759 29.8035 85.3052 29.7811 91.8358C29.7811 93.1286 29.0113 93.8394 27.7308 93.8412C23.3815 93.8412 19.0323 93.8412 14.683 93.8412C13.2832 93.8412 12.6736 93.2051 12.6736 91.7891C12.6811 88.5829 12.6848 85.3786 12.6848 82.1761Z" fill="#374151"/>
</svg>
