<svg width="100" height="100" viewBox="0 0 100 100" fill="none" xmlns="http://www.w3.org/2000/svg">
<path d="M4.70569 30.2002C6.71598 30.4584 8.72977 30.6904 10.7348 30.9904C11.3561 31.0829 11.7068 30.877 12.0331 30.3886C13.6211 28.0039 15.2161 25.621 16.8495 23.2677C17.2212 22.7339 17.2404 22.2995 16.9472 21.7535C15.9194 19.8346 14.9125 17.9156 13.9021 15.9967C13.3786 14.9884 13.4676 14.6169 14.3733 13.9487C17.5248 11.6228 20.6735 9.29684 23.8192 6.97089C25.0896 6.02714 25.4246 6.02716 26.5589 7.11919C27.9428 8.44847 29.351 9.76031 30.686 11.1315C31.3037 11.7647 31.8447 11.8397 32.6788 11.5205C35.1009 10.5924 37.5545 9.74286 40.0237 8.95437C40.7497 8.72235 41.083 8.35777 41.2016 7.65824C41.5733 5.46371 41.9799 3.27441 42.3324 1.07639C42.4563 0.296616 42.8385 0.00527003 43.6185 0.00875895C47.8346 0.0296925 52.0523 0.0366704 56.2701 0.00875895C57.1269 0.00875895 57.4707 0.406515 57.5964 1.16187C57.9454 3.27092 58.3206 5.37649 58.6539 7.48904C58.7917 8.36127 59.2454 8.78168 60.1127 9.05905C62.5558 9.82836 64.9797 10.6918 67.3791 11.6007C68.1207 11.8816 68.6146 11.7891 69.1573 11.2518C70.6877 9.73936 72.2635 8.27227 73.7974 6.76331C74.3767 6.19462 74.9229 6.15275 75.5669 6.62724C78.9302 9.1067 82.2969 11.5792 85.6672 14.0447C86.3548 14.5471 86.4123 15.1385 86.0249 15.8659C84.9901 17.8057 83.9937 19.7648 82.9519 21.6994C82.6238 22.3082 82.6587 22.7618 83.0741 23.3567C84.6656 25.6349 86.196 27.9551 87.7159 30.2839C88.0649 30.8264 88.3947 31.0864 89.1119 30.9817C91.1414 30.666 93.1866 30.4479 95.2301 30.2228C95.9176 30.1478 96.3766 30.4654 96.5738 31.1719C97.6941 35.1719 98.8423 39.165 99.9539 43.165C100.174 43.9466 99.6503 44.3495 99.0535 44.6513C97.1479 45.6142 95.244 46.5807 93.321 47.5052C92.6073 47.8541 92.3368 48.3147 92.3019 49.1259C92.192 51.6466 91.9913 54.1639 91.7784 56.6776C91.7225 57.3475 91.9389 57.747 92.5078 58.0959C94.0626 59.0483 95.5861 60.0549 97.12 61.044C98.167 61.7174 98.263 62.0645 97.7918 63.1967C96.3074 66.7705 94.8229 70.3449 93.3385 73.9199C92.7678 75.2928 92.5078 75.4201 91.1013 75.0189C89.3807 74.5305 87.6583 74.0525 85.9412 73.5501C85.2432 73.3477 84.7685 73.4977 84.2764 74.0734C82.5698 76.0883 80.816 78.0647 79.0413 80.0168C78.5649 80.5401 78.4497 81.0007 78.7045 81.6548C79.3728 83.3766 79.9975 85.1159 80.624 86.8499C81.0132 87.9105 80.8701 88.378 79.9085 88.9624C76.668 90.9319 73.4117 92.877 70.1729 94.85C69.4295 95.3018 68.8537 95.218 68.2673 94.5621C66.8713 93.0043 65.4229 91.4919 64.0199 89.9376C63.5592 89.4264 63.1159 89.2398 62.4214 89.4997C61.2592 89.9218 60.0551 90.2324 58.8702 90.5952C58.2054 90.7993 57.8424 91.1866 57.7377 91.9454C57.4568 94.0074 57.0502 96.0536 56.7413 98.1121C56.6348 98.8238 56.2544 99.0157 55.614 99.014C51.8912 99 48.1684 99 44.4457 99.014C43.7145 99.014 43.3428 98.7994 43.2468 98.0039C43.013 96.0501 42.6675 94.112 42.4127 92.1617C42.2975 91.2651 41.9555 90.6615 41.0167 90.4295C39.8422 90.1399 38.6853 89.7771 37.5266 89.4334C36.935 89.259 36.5022 89.3968 36.0712 89.8765C34.6141 91.4988 33.0959 93.0654 31.6283 94.6755C31.0961 95.2599 30.5481 95.2704 29.9286 94.8988C26.6235 92.9218 23.3219 90.9383 20.0237 88.9484C19.1512 88.4251 19.0116 87.9506 19.3658 86.972C20.001 85.2083 20.6327 83.4412 21.3063 81.6897C21.5716 81.0007 21.4267 80.5227 20.9277 79.9802C19.1431 78.0333 17.3922 76.0563 15.6751 74.049C15.1515 73.4489 14.628 73.3512 13.9126 73.5658C12.1169 74.1031 10.3073 74.5933 8.50291 75.0992C7.52568 75.373 7.19762 75.2317 6.80847 74.3107C5.21117 70.5322 3.6191 66.7525 2.03227 62.9717C1.71991 62.2285 1.84206 61.6441 2.57149 61.1923C4.22231 60.1718 5.84346 59.0989 7.49951 58.0872C8.07363 57.7383 8.26558 57.3161 8.19753 56.6532C7.94799 54.026 7.71764 51.3971 7.53266 48.7647C7.48555 48.0914 7.10513 47.7966 6.59907 47.5436C4.86972 46.6714 3.1334 45.8271 1.41103 44.9461C-0.138569 44.1541 -0.211859 43.9395 0.245343 42.2963C1.27318 38.5997 2.30625 34.9067 3.3079 31.2033C3.52254 30.42 3.96404 30.1339 4.70569 30.2002ZM72.164 24.1399C71.6719 23.7579 71.2915 23.4508 70.8954 23.156C63.0427 17.2528 54.2337 14.8698 44.5591 16.4852C35.3906 18.0151 27.9323 22.631 22.5715 30.2804C16.6854 38.6713 14.806 47.9379 17.3119 57.9354C19.1076 65.0982 23.1526 70.8601 28.8746 75.462C34.053 79.6766 40.3726 82.2491 47.0231 82.8498C51.5079 83.2807 55.963 82.8498 60.2192 81.3077C73.2739 76.5785 81.4861 67.6834 83.4492 53.6667C84.3218 47.411 83.2224 41.3787 80.5507 35.6516C80.3099 35.1283 80.3762 34.8544 80.7671 34.4776C81.9311 33.342 83.0985 32.2011 84.1839 30.9887C85.3531 29.6873 85.3409 28.0737 84.1543 26.8351C82.4459 25.0505 80.7025 23.2956 78.9191 21.5895C77.5597 20.2899 75.9351 20.3579 74.5984 21.675C73.7764 22.4704 72.9947 23.2921 72.164 24.1399Z" fill="#374151"/>
<path d="M45.9289 52.9497L56.907 41.9683L75.7222 23.156C76.7343 22.1442 77.0519 22.1355 78.0692 23.156C79.6142 24.6958 81.1516 26.2432 82.6814 27.7981C83.5138 28.6424 83.519 29.328 82.6587 30.195C75.924 36.9891 69.1852 43.7785 62.4423 50.5633C57.7039 55.3245 52.9551 60.0753 48.1958 64.8156C47.9497 65.0615 47.7071 65.3127 47.4524 65.5517C46.3338 66.5984 45.4368 66.5984 44.3549 65.536C42.8832 64.087 41.4203 62.6332 39.9661 61.1749C35.4046 56.6079 30.8442 52.0397 26.2849 47.4704C25.2222 46.4045 25.2135 45.7381 26.2745 44.667C27.7246 43.1982 29.1904 41.7451 30.6475 40.2832C31.7434 39.1842 32.2338 39.1877 33.321 40.2832C37.3101 44.3129 41.3011 48.3403 45.2937 52.3654C45.4752 52.5346 45.6689 52.7055 45.9289 52.9497Z" fill="#374151"/>
</svg>
