<svg width="100" height="100" viewBox="0 0 100 100" fill="none" xmlns="http://www.w3.org/2000/svg">
<path d="M4.69769 30.1966C6.70799 30.4548 8.72177 30.6868 10.7268 30.9869C11.3481 31.0793 11.6988 30.8735 12.0252 30.385C13.6131 28.0003 15.2081 25.6174 16.8415 23.2642C17.2132 22.7303 17.2324 22.2959 16.9392 21.7499C15.9114 19.831 14.9045 17.9121 13.8941 15.9932C13.3706 14.9849 13.4596 14.6133 14.3653 13.9452C17.5168 11.6193 20.6655 9.2933 23.8112 6.96735C25.0816 6.0236 25.4167 6.02362 26.5509 7.11565C27.9348 8.44493 29.343 9.75677 30.678 11.1279C31.2957 11.7612 31.8367 11.8362 32.6708 11.5169C35.0929 10.5889 37.5465 9.73932 40.0157 8.95083C40.7417 8.71881 41.075 8.35423 41.1936 7.6547C41.5653 5.46017 41.9719 3.27087 42.3244 1.07285C42.4483 0.293076 42.8305 0.00172999 43.6105 0.00521891C47.8266 0.0261525 52.0443 0.0331303 56.2621 0.00521891C57.1189 0.00521891 57.4627 0.402975 57.5884 1.15833C57.9374 3.26738 58.3126 5.37295 58.6459 7.4855C58.7837 8.35773 59.2374 8.77814 60.1047 9.05551C62.5478 9.82482 64.9717 10.6883 67.3711 11.5972C68.1128 11.878 68.6066 11.7856 69.1493 11.2483C70.6797 9.73582 72.2555 8.26873 73.7894 6.75977C74.3687 6.19108 74.9149 6.14921 75.5589 6.6237C78.9222 9.10316 82.2889 11.5757 85.6592 14.0412C86.3468 14.5436 86.4043 15.1349 86.0169 15.8624C84.9821 17.8022 83.9857 19.7613 82.9439 21.6959C82.6158 22.3047 82.6507 22.7583 83.0661 23.3531C84.6576 25.6314 86.188 27.9515 87.7079 30.2804C88.0569 30.8229 88.3867 31.0828 89.1039 30.9782C91.1334 30.6624 93.1786 30.4443 95.2221 30.2193C95.9096 30.1443 96.3686 30.4618 96.5658 31.1683C97.6861 35.1684 98.8343 39.1614 99.9459 43.1615C100.166 43.943 99.6423 44.346 99.0455 44.6477C97.1399 45.6107 95.236 46.5771 93.313 47.5017C92.5993 47.8506 92.3288 48.3111 92.2939 49.1223C92.184 51.6431 91.9833 54.1603 91.7704 56.6741C91.7145 57.344 91.9309 57.7434 92.4998 58.0923C94.0546 59.0448 95.5781 60.0514 97.112 61.0405C98.159 61.7138 98.255 62.061 97.7838 63.1931C96.2994 66.767 94.8149 70.3414 93.3305 73.9164C92.7598 75.2893 92.4998 75.4166 91.0933 75.0154C89.3727 74.5269 87.6503 74.0489 85.9332 73.5465C85.2352 73.3442 84.7605 73.4942 84.2684 74.0699C82.5618 76.0847 80.808 78.0612 79.0333 80.0133C78.5569 80.5366 78.4417 80.9971 78.6965 81.6513C79.3648 83.3731 79.9895 85.1123 80.616 86.8463C81.0052 87.907 80.8621 88.3745 79.9006 88.9589C76.66 90.9284 73.4037 92.8734 70.1649 94.8464C69.4215 95.2982 68.8457 95.2145 68.2593 94.5586C66.8633 93.0008 65.4149 91.4883 64.0119 89.934C63.5512 89.4229 63.108 89.2362 62.4134 89.4961C61.2512 89.9183 60.0471 90.2288 58.8622 90.5917C58.1974 90.7958 57.8344 91.183 57.7297 91.9419C57.4488 94.0038 57.0422 96.0501 56.7333 98.1086C56.6268 98.8203 56.2464 99.0122 55.606 99.0105C51.8832 98.9965 48.1604 98.9965 44.4377 99.0105C43.7065 99.0105 43.3348 98.7959 43.2388 98.0004C43.005 96.0466 42.6595 94.1085 42.4047 92.1582C42.2895 91.2615 41.9475 90.658 41.0087 90.426C39.8342 90.1364 38.6773 89.7735 37.5186 89.4299C36.927 89.2554 36.4942 89.3932 36.0632 89.873C34.6061 91.4953 33.0879 93.0618 31.6203 94.672C31.0881 95.2564 30.5401 95.2668 29.9206 94.8953C26.6155 92.9182 23.3139 90.9347 20.0157 88.9449C19.1432 88.4216 19.0036 87.9471 19.3578 86.9684C19.993 85.2048 20.6247 83.4376 21.2983 81.6862C21.5636 80.9971 21.4187 80.5192 20.9197 79.9766C19.1351 78.0298 17.3842 76.0527 15.6671 74.0455C15.1436 73.4454 14.62 73.3477 13.9046 73.5622C12.1089 74.0995 10.2993 74.5897 8.49492 75.0956C7.51769 75.3695 7.18962 75.2282 6.80048 74.3071C5.20317 70.5286 3.61111 66.7489 2.02428 62.9681C1.71191 62.225 1.83407 61.6406 2.5635 61.1888C4.21431 60.1682 5.83546 59.0954 7.49151 58.0836C8.06563 57.7347 8.25759 57.3126 8.18953 56.6497C7.93999 54.0225 7.70964 51.3936 7.52467 48.7612C7.47755 48.0878 7.09713 47.793 6.59107 47.5401C4.86173 46.6678 3.1254 45.8235 1.40304 44.9426C-0.146564 44.1506 -0.219855 43.936 0.237348 42.2927C1.26518 38.5962 2.29825 34.9032 3.29991 31.1997C3.51455 30.4164 3.95605 30.1304 4.69769 30.1966ZM72.156 24.1364C71.6639 23.7543 71.2835 23.4473 70.8874 23.1525C63.0347 17.2492 54.2257 14.8663 44.5511 16.4817C35.3826 18.0116 27.9243 22.6274 22.5635 30.2769C16.6774 38.6677 14.798 47.9343 17.3039 57.9319C19.0996 65.0946 23.1446 70.8566 28.8666 75.4585C34.045 79.6731 40.3646 82.2456 47.0151 82.8463C51.4999 83.2771 55.955 82.8463 60.2112 81.3042C73.2659 76.5749 81.4781 67.6799 83.4413 53.6631C84.3138 47.4075 83.2144 41.3752 80.5427 35.6481C80.3019 35.1248 80.3682 34.8509 80.7591 34.4741C81.9231 33.3384 83.0905 32.1975 84.1759 30.9851C85.3451 29.6838 85.3329 28.0701 84.1463 26.8316C82.4379 25.047 80.6945 23.292 78.9111 21.586C77.5517 20.2863 75.9271 20.3544 74.5904 21.6714C73.7685 22.4669 72.9867 23.2886 72.156 24.1364Z" fill="#DF4C73"/>
<path d="M45.9209 52.9462L56.899 41.9648L75.7142 23.1525C76.7263 22.1407 77.0439 22.132 78.0612 23.1525C79.6062 24.6923 81.1436 26.2396 82.6734 27.7945C83.5058 28.6389 83.511 29.3244 82.6507 30.1914C75.916 36.9855 69.1772 43.775 62.4343 50.5598C57.6959 55.321 52.9471 60.0717 48.1878 64.812C47.9417 65.058 47.6991 65.3092 47.4444 65.5482C46.3258 66.5949 45.4288 66.5949 44.3469 65.5325C42.8753 64.0834 41.4123 62.6297 39.9581 61.1713C35.3966 56.6043 30.8362 52.0362 26.2769 47.4668C25.2142 46.401 25.2055 45.7346 26.2665 44.6635C27.7166 43.1946 29.1824 41.7415 30.6395 40.2797C31.7354 39.1807 32.2258 39.1841 33.313 40.2797C37.3021 44.3094 41.2931 48.3368 45.2857 52.3618C45.4672 52.531 45.6609 52.702 45.9209 52.9462Z" fill="#DF4C73"/>
</svg>
